<?xml version="1.0" encoding="UTF-8"?>
<svg id="Layer_2" data-name="Layer 2" xmlns="http://www.w3.org/2000/svg" xmlns:xlink="http://www.w3.org/1999/xlink" viewBox="0 0 352.05 114.82">
  <defs>
    <style>
      .cls-1 {
        stroke: #231f20;
      }

      .cls-1, .cls-2, .cls-3, .cls-4 {
        stroke-miterlimit: 10;
      }

      .cls-1, .cls-5 {
        fill: #231f20;
      }

      .cls-6 {
        fill: none;
      }

      .cls-6, .cls-7, .cls-8, .cls-5 {
        stroke-width: 0px;
      }

      .cls-9 {
        font-family: Montserrat-Bold, Montserrat;
        font-size: 45px;
        font-weight: 700;
      }

      .cls-2 {
        fill: #b92900;
        stroke: #821902;
      }

      .cls-7 {
        fill: #fff;
      }

      .cls-8, .cls-4 {
        fill: #264c16;
      }

      .cls-3 {
        fill: #2a9345;
      }

      .cls-3, .cls-4 {
        stroke: #264c16;
      }

      .cls-10 {
        clip-path: url(#clippath);
      }

      .cls-11 {
        font-family: InkFree, 'Ink Free';
        font-size: 36px;
      }

      .cls-12 {
        letter-spacing: 0em;
      }
    </style>
    <clipPath id="clippath">
      <path class="cls-6" d="m87.28,24.39c-.76-.23-1.48-.4-2.17-.51-2.85-.45-5.19.09-7.02,1.54-1.77,1.4-8.2,5.98-11.02,8.98-1.35,1.44-.09,3.05,1.08,3.78,2.29,1.44,4.58,1.32,9.56-1.7,2.54-1.54,4.17-.26,5.98.98,0,0,2.83,2.34,5.31,3.22.98.34,2.47.34,4.04.04-7.37-.12-10.27-14.44-10.27-14.44,0,0,0-1.51,4.51-1.9Z"/>
    </clipPath>
  </defs>
  <g id="Layer_2-2" data-name="Layer 2">
    <g>
      <text transform="translate(127.37 56.85)"><tspan class="cls-11"><tspan x="0" y="0">Helping Hands</tspan></tspan><tspan class="cls-9"><tspan x="0" y="46">KI</tspan><tspan class="cls-12" x="48.06" y="46">T</tspan><tspan x="75.42" y="46">CHEN</tspan></tspan></text>
      <g>
        <path class="cls-7" d="m50.59,18.31c.66-1.85.15-3.11-.45-4.09-1.82-3.07-5.4-8.4-7.8-10.52-1.81-1.6-4.32-2.21-6.53-2.66-3.57-.72-8.34-.69-12.25.72.01-.05.03-.09.03-.09,0,0-2.69-.13-3.62-.3-1-.19-2.06-.25-2.06-.25-5.36,4.28-6.97,10.43-6.85,10.81.04.12,4.73,1.93,6.92,2.45.72.82,1.97,2.22,2.73,2.89,1.33,1.18,2.71,2.13,4.28,2.97,2.66,1.42,5.09,2.14,7.15,2.81.49.16.94.31,1.35.45,3,1.04,4.4,2.56,5.58,3.6.36.32.67.59.92.76.83.57,2.28-.6,2.75-1.13.14-.16.48.74.84,1.09.36.35,1.38.52,1.87.43.38-.06.33-.24.71-.3.46-.08,1.24.09,1.68-.11.18-.08.4-.25.48-.59.28-1.21.56-2.78.56-2.79v-.04c.07-.22,1.45-5.36,1.71-6.09h0Zm-13.04-4.21c.72-.23,1.35,2.29,1.47,2.8.12.53.15,1.12.17,1.75.04.87.2,1.72.28,2.57-.42-.21-.76-.67-1.14-.97-.53-.41-1.12-.73-1.71-1.04-1.12-.58-2.9-1.74-3.79-2.65.27-.2,4.19-2.3,4.71-2.47h0Z"/>
        <path class="cls-7" d="m50.59,18.31c.66-1.85.15-3.11-.44-4.09-1.82-3.07-5.4-8.4-7.8-10.52-1.49-1.31-3.41-1.94-5.3-2.4-1.91-.46-3.44.03-5.22.79-1.23.52-2.47,1.04-3.55,1.83-3.5,2.53-4.68,7.39-3.96,11.65.34,2.05,1.13,4.01,2.74,5.38,1.38,1.17,3.38,1.55,5.08,2.1.49.16.94.31,1.35.45,3,1.04,4.4,2.56,5.58,3.6.36.32.67.59.92.76.83.57,2.28-.6,2.75-1.13.14-.16.48.74.84,1.09.36.35,1.38.52,1.87.43.38-.06.33-.24.71-.3.46-.08,1.24.09,1.68-.11.18-.08.4-.25.48-.59.28-1.21.56-2.78.56-2.79v-.04c.07-.22,1.45-5.36,1.71-6.09h0Zm-11.57-1.41c.12.53.38,3.47.45,4.33-.43-.21-6.64-4.65-6.64-4.65l4.71-2.47s1.35,2.29,1.47,2.8Z"/>
        <path class="cls-5" d="m32.01,17.16c-.26-.08.42-.88.56-.84,2.6.87,5.69,3,6.87,4.56l.02.03c.06.06.1.13.13.22.07.26-.08.52-.35.59-.32.08-.51-.16-.58-.25-1.06-1.4-4.24-3.5-6.66-4.31h0Z"/>
        <path class="cls-5" d="m37.31,13.74c.24-.14.54-.07.68.16.14.23.06.53-.18.67h0c-2.14,1.29-4.17,2.45-6.89,2.78-1.19.14-1.32-.15-1.32-.15,2.74-.76,5.66-2.23,7.71-3.46Z"/>
        <path class="cls-5" d="m10.99,12.43s-.05-.38.12-.97c0,0,5.92,1.4,6.73,2.23l.32.33c1.15,1.2,3.84,4.02,6.84,5.63,2.6,1.39,5.1,2.21,7.1,2.86.48.16.92.3,1.32.44,2.93,1.02,4.67,2.56,5.82,3.57.35.31.66.58.9.75.4.27,1.08.07,1.51-.29.15-.13.63-.58.41-1.07-.11-.24,0-.53.25-.64.24-.11.53,0,.64.25.33.75.07,1.59-.68,2.21-.69.58-1.83.93-2.68.34-.29-.2-.62-.49-.99-.82-1.09-.97-2.75-2.43-5.5-3.39-.39-.14-.83-.28-1.3-.43-1.93-.63-4.58-1.5-7.26-2.93-3.14-1.68-5.91-4.58-7.08-5.81l-.31-.32c-.51-.53-3.52-1.35-6.15-1.93h0Z"/>
        <g>
          <path class="cls-3" d="m44.41,24.08s0-1.01.13-1.24.71-1.02.73-1.16c.02-.14-.77-.4-1.41-.45-.71-.06-1.39.26-1.39.38s.71,1.16.75,1.33c.05.2.04,1.37.04,1.37,0,0-1.57.21-2.62,1.98-1.78,2.99.03,5.73.03,5.73l1.85-.68-1.18,1.79s.47,1.28,2.8,2.88c2.43,1.66,6.24,1.9,6.32,1.37.05-.33-.58-.64-1.32-2.07-.93-1.79-.38-3.94-.27-5.5s-.34-3.68-2.1-4.79c-1.32-.84-2.37-.94-2.37-.94h0Z"/>
          <path class="cls-8" d="m44.02,25.36c-.29.01-.54,1.73.36,4.94.9,3.22,3.3,5.5,3.46,5.39.22-.15-2-3.32-2.6-5.54-.55-2.06-.81-4.82-1.23-4.8Z"/>
          <path class="cls-8" d="m41.44,30.82c.12.08,1.15-.97,1.86-1.75.52-.57.99-1.08.99-1.08,0,0,.69.33,1.47.66,1.04.45,2.17,1.07,2.34.84.14-.2-1.29-1.33-2.16-1.8-.86-.47-1.8-.84-1.8-.84,0,0-.86.77-1.38,1.44-.35.45-1.64,2.29-1.32,2.53h0Z"/>
          <path class="cls-8" d="m45.24,30.82c-.57.04-1.03,2.12-1.11,2.89s-.13,1.37.05,1.44c.19.08,1.24-3.36,1.24-3.36,0,0,2.45,2.04,2.62,1.85s-.78-1.4-1.3-1.84-1.19-.99-1.51-.97h0Z"/>
        </g>
        <g>
          <path class="cls-3" d="m44.8,23.86s.58-.83.8-.95,1.16-.45,1.26-.55c.09-.11-.41-.77-.91-1.16-.55-.44-1.29-.56-1.36-.46s-.06,1.35-.13,1.51c-.07.19-.74,1.15-.74,1.15,0,0-1.41-.7-3.28.17-3.16,1.47-3.2,4.76-3.2,4.76l1.91.48-1.98.82s-.33,1.32.7,3.95c1.07,2.74,4.1,5.08,4.46,4.68.23-.25-.12-.85.07-2.45.24-2,1.9-3.47,2.87-4.7s1.79-3.23.96-5.15c-.62-1.43-1.43-2.1-1.43-2.1h0Z"/>
          <path class="cls-4" d="m43.76,24.7c-.24-.15-1.42,1.13-2.48,4.29-1.06,3.17-.37,6.41-.17,6.41.26,0,.21-3.87.96-6.04.7-2.01,2.04-4.44,1.68-4.66Z"/>
          <path class="cls-4" d="m38.56,27.77c.05.14,1.5-.16,2.52-.4.75-.18,1.42-.34,1.42-.34,0,0,.39.66.85,1.38.61.96,1.2,2.1,1.46,2.01.23-.08-.32-1.83-.77-2.7-.45-.87-1.01-1.71-1.01-1.71,0,0-1.15.15-1.95.41-.54.17-2.65.97-2.51,1.35h0Z"/>
          <path class="cls-4" d="m41.7,29.9c-.49-.29-2.04,1.17-2.54,1.76s-.88,1.06-.77,1.22c.11.17,2.92-2.08,2.92-2.08,0,0,.88,3.07,1.13,3s.14-1.6-.04-2.25-.43-1.49-.7-1.65h0Z"/>
        </g>
        <g>
          <path class="cls-3" d="m44.14,24.54s-.74-.74-2.23-1.23c-1.99-.65-3.9.35-5.03,1.44s-2.44,2.87-4.41,3.3c-1.57.34-2.21.05-2.44.3-.36.4,2.25,3.19,5.08,4,2.72.78,4,.33,4,.33l.63-2.05.66,1.86s3.27-.35,4.44-3.63c.69-1.94-.14-3.28-.14-3.28,0,0,.89-.75,1.07-.84.15-.08,1.4-.19,1.5-.27s-.1-.8-.59-1.31c-.44-.46-1.15-.9-1.24-.8-.1.1-.34,1.06-.43,1.3s-.87.89-.87.89h0Z"/>
          <path class="cls-8" d="m38.93,27.77c-2.09.95-5.95,1.27-5.92,1.53.02.2,3.31.59,6.36-.77,3.05-1.35,4.21-2.64,4.04-2.87-.25-.33-2.54,1.23-4.48,2.11Z"/>
          <path class="cls-8" d="m40.84,31.12c.39.1.98-2.08,1.11-2.63.18-.83.23-1.98.23-1.98,0,0-.89-.48-1.8-.85-.91-.37-2.7-.75-2.76-.52-.07.27,1.13.74,2.14,1.26.75.39,1.45.71,1.45.71,0,0-.09.68-.2,1.45-.15,1.04-.31,2.51-.17,2.55h0Z"/>
          <path class="cls-8" d="m38.42,28.2c-.18-.25-1.04-.43-1.71-.54s-2.2-.08-2.24.17,3.09.84,3.09.84c0,0-1.98,3-1.8,3.1.17.1.61-.32,1.14-.88s1.85-2.23,1.51-2.7h0Z"/>
        </g>
        <path class="cls-7" d="m50.59,18.31c.66-1.85.15-3.11-.45-4.09-1.82-3.07-5.4-8.4-7.8-10.52-1.81-1.6-4.32-2.21-6.53-2.66-3.46-.7-7.17-.66-10.6.21-2.57.65-5.29,1.67-5.55,5.13-.1,1.29,1.22,3.66,2.76,4.56,6.77,3.92,11.82.51,13.64.04.92,2.62,2.38,5.07,2.83,7.81.19,1.14.43,5.34,2.26,6.32.3.16.62.31.88.54.33.29.5.7.71,1.09.29.55.67,1.07,1.2,1.38.99.58,1.65-.06,2.6-.23.46-.08.87.16,1.3-.05.18-.08.4-.25.48-.59.28-1.21.56-2.78.56-2.79v-.04c.07-.22,1.45-5.36,1.71-6.09h0Z"/>
        <g>
          <path class="cls-5" d="m35.76,10.08c-.27-.87-.11-1.56.04-1.97.06-.14.26-.12.3.02.46,1.84,1.4,3.97,2.01,5.46.55,1.35.99,2.42,1.15,3.12.13.58.16,1.22.19,1.9.05,1.19.11,2.53.73,3.95.59,1.34,1,2.17,1.62,2.42.43.17.9.13,1.16-.11.29-.26.24-.67.15-.97l-.02-.07c0-.06-.2-1.47-.24-2.38-.02-.38,0-.91.03-1.52.04-.91.11-2.04.02-3.17-.23-2.69-1.59-6.85-2.04-8.16-.05-.16.14-.28.26-.16.24.25.59.72,1.03,1.66,1.23,2.6,1.61,4.69,1.72,6.6.07,1.18.03,2.34-.01,3.27-.02.59-.04,1.1-.03,1.43.04.8.2,2.05.23,2.27.22.78.06,1.48-.44,1.93-.54.49-1.39.61-2.17.29-.96-.39-1.45-1.36-2.15-2.93-.7-1.58-.77-3.09-.82-4.3-.03-.66-.05-1.23-.16-1.72-.14-.63-.59-1.71-1.1-2.97-.53-1.31-1.14-2.87-1.45-3.88h0Z"/>
          <path class="cls-5" d="m44.6,8.08c-.07-.18-.1-.25.11-.11.36.24.84.99,1.13,1.58.84,1.73,1.82,4.59,2.25,6.09l.03.1c.33,1.16.14,2.79-.18,3.82-.49,1.6-1.12,4.89-1.1,5.86v.31c.03,1.14.05,2.55-1.2,2.96-.55.18-1.17.1-1.76-.22-.88-.47-1.53-1.41-1.86-2.63-.07-.26.08-.53.34-.59.26-.07.53.08.59.34.25.95.76,1.69,1.38,2.03.35.19.7.24.99.15.52-.17.55-.91.53-2.02v-.32c-.02-1.17.65-4.57,1.14-6.16.29-.92.44-2.34.17-3.27l-.03-.1c-.56-2.43-2.14-6.7-2.57-7.82h0Z"/>
          <path class="cls-5" d="m17.7,1.28l.95-.75c2.27.58,4.18.7,5.81.37l.37-.07c2.11-.44,6.49-1.35,11.15-.4,2.28.46,4.88,1.1,6.82,2.82,2.42,2.15,6,7.46,7.81,10.5.65,1.09,1.29,2.62.51,4.82-.18.52-1.14,4.04-1.63,5.85-.04.19-.3,1.63-.56,2.75-.13.55-.48.99-1,1.24-.6.29-1.34.26-2.02-.08-.24-.12-.34-.41-.21-.65.12-.24.41-.34.65-.22.41.2.84.23,1.17.07.17-.08.39-.25.47-.57.27-1.18.55-2.71.55-2.73v-.04c.07-.21,1.42-5.26,1.67-5.95.64-1.81.14-3.04-.43-4-1.78-2.99-5.27-8.2-7.61-10.27-1.77-1.56-4.22-2.16-6.38-2.6-4.47-.91-8.56-.06-10.76.4l-.37.08c-1.94.4-4.23.21-6.95-.57h0Z"/>
          <path class="cls-5" d="m22.67,11.09c-.48-.28-1.06-.89-1.09-1.13-.03-.2,1.02.45,1.4.65,4.07,2.12,8.42,1.87,13.21-.47.24-.12.67.76.43.87-5.26,2.58-9.64,2.63-13.95.08h0Z"/>
        </g>
      </g>
      <g>
        <path class="cls-7" d="m105.31,27.82c0-1.1-.89-2-2.02-2.06-.91-.04-3.17.53-4.45-.07-3.16-1.48-16.16-8.33-16.16-8.33-1.14-.62-3.95-1.54-5.37-1.18l-10.37,4.13c-1.01.25-1.83.87-2.36,1.66-.38.43-.8,3.44-1.37,6.17s-1.27,4.54-1.27,4.54c-.56,2.08,1.08,3.48,2.54,3.73s3.38-.65,3.94-2.73l1.2-5.77c.19-.94.97-1.66,1.94-1.8l3.65.13-1.29,6.58s6.51,8.33,15.71,10.31c3.38.73,6.52-1.39,8.94-1.54,1.12-.07,3.44.18,4.46.47,1.14.33,2.28-.51,2.28-1.65v-12.59h0Z"/>
        <path class="cls-7" d="m92.01,43.68c-2.33-.04-5.9-1.37-8.36-2.44-1.82-.8-3.88-.87-5.75-.21l-1.88.66c-1.79.63-3.79.04-4.9-1.46l-3.69-4.94,30.81-.06s-.56,8.56-6.22,8.45Z"/>
        <path class="cls-5" d="m74.73,27.92l5.51-9.1-.04,1.52c-.04,1.55.98,2.95,2.5,3.45l-7.97,4.14Z"/>
        <path class="cls-5" d="m78.06,17.2c1.25,0,3.23.66,4.11,1.13.53.28,13.06,6.88,16.21,8.35.55.26,1.22.38,2.06.38.65,0,1.28-.07,1.83-.13.36-.04.71-.08.92-.08h.05c.55.03.97.45.97.96v12.59c0,.38-.35.63-.67.63-.07,0-.14-.01-.2-.03-1.07-.31-3.14-.53-4.34-.53-.18,0-.35,0-.5.01-1.04.07-2.11.41-3.25.79l-.22.07c-.15.05-.29.13-.41.24-.71.66-1.53.98-2.5.98h-.09c-1.69-.03-4.66-.91-7.94-2.35-1.14-.5-2.34-.75-3.59-.75-1.02,0-2.02.17-2.97.51l-1.88.66c-.35.12-.72.19-1.09.19-1.02,0-1.97-.47-2.57-1.26l-.5-.66c-.21-.28-.54-.44-.88-.44-.04,0-.07,0-.11,0-.11.01-.22.01-.32.01-1.06,0-1.45-.54-1.65-.95-.28-.57-.32-1.15-.11-1.73.08-.23.08-.48.01-.7.24-.03.47-.14.65-.32.26-.26.55-.48.89-.66.01,0,.03-.01.04-.02l4.98-2.97c.27-.16.46-.43.52-.73l.77-3.95c.07-.34-.03-.69-.26-.95-.21-.23-.51-.36-.81-.36-.03,0-.07,0-.1,0l-3.14.3s-.04,0-.06,0c-1.4.21-2.53,1.25-2.84,2.6l-1.7,5.29s-.01.03-.01.05c-.02.07-.04.15-.08.25-.08.23-.09.48-.02.7-.23.03-.45.13-.63.3-.45.44-1.08.71-1.67.71-.1,0-.21,0-.3-.03-.6-.1-1.18-.48-1.49-.96-.25-.39-.32-.85-.19-1.35.13-.35.77-2.1,1.3-4.64.18-.88.35-1.76.51-2.61.23-1.23.51-2.75.68-3.14l.03-.04c.4-.6,1.01-1.03,1.71-1.2.05-.01.1-.03.14-.04l10.29-4.11c.1-.01.23-.03.43-.03m0-1.1c-.27,0-.53.03-.75.08l-10.37,4.13c-1.01.25-1.83.87-2.36,1.66-.38.43-.8,3.44-1.37,6.17-.57,2.73-1.27,4.53-1.27,4.53-.56,2.08,1.08,3.48,2.54,3.73.16.03.32.04.48.04.83,0,1.74-.34,2.44-1.02-.29.81-.27,1.72.16,2.59.55,1.11,1.53,1.56,2.64,1.56.14,0,.29,0,.43-.02l.5.66c.82,1.09,2.11,1.7,3.45,1.7.49,0,.98-.08,1.46-.25l1.88-.66c.84-.3,1.72-.44,2.6-.44,1.07,0,2.15.22,3.15.66,2.46,1.08,6.03,2.4,8.36,2.44h.11c1.36,0,2.43-.51,3.25-1.28,1.16-.38,2.24-.75,3.2-.81.13,0,.27-.01.44-.01,1.21,0,3.13.22,4.03.48.17.05.34.07.51.07.95,0,1.77-.75,1.77-1.73v-12.59c0-1.1-.89-2-2.02-2.06-.03,0-.07,0-.1,0-.62,0-1.72.21-2.75.21-.59,0-1.15-.07-1.59-.27-3.16-1.48-16.16-8.33-16.16-8.33-.97-.52-3.13-1.26-4.63-1.26h0Zm-9.75,17.91c.04-.11.08-.22.11-.34l1.72-5.34c.19-.94.97-1.66,1.94-1.8l3.13-.29-.77,3.95-4.98,2.97c-.43.24-.82.53-1.14.86h0Z"/>
        <path class="cls-2" d="m45.58,68.47l4.03,2.47L89.26,6.23c-.5-2.01-1.72-3.01-4.03-2.47l-39.65,64.71Z"/>
        <path class="cls-7" d="m88.71,24.88c-4.55-1.73-8.07-1.47-10.63.55-1.77,1.4-8.2,5.98-11.02,8.98-1.35,1.44-.09,3.05,1.08,3.78,2.29,1.44,4.58,1.32,9.56-1.7,2.54-1.54,4.17-.26,5.98.98,0,0,2.83,2.34,5.31,3.22s8.31-.47,10.25-3.42c2.15-3.26-1.33-8.9-10.54-12.4Z"/>
        <g class="cls-10">
          <path class="cls-5" d="m83.22,24.83c.85,0,1.77.12,2.76.35-.97,5.22.69,10.5,4.54,14.67-.57-.03-.94-.12-1.16-.19-2.27-.8-4.95-3.01-4.98-3.03s-.05-.04-.08-.06l-.25-.17c-1.22-.84-2.48-1.71-4.11-1.71-.93,0-1.85.28-2.81.87-2.77,1.68-4.65,2.43-6.11,2.43-.79,0-1.5-.22-2.3-.73-.61-.38-1.08-.96-1.14-1.41-.02-.16,0-.38.28-.69,2.14-2.28,6.52-5.57,9.13-7.53.76-.57,1.37-1.03,1.76-1.34,1.25-.98,2.71-1.46,4.46-1.46m0-1.1c-2.02,0-3.72.58-5.14,1.69-1.77,1.4-8.2,5.98-11.02,8.98-1.35,1.44-.09,3.05,1.08,3.78.91.57,1.81.89,2.88.89,1.64,0,3.67-.76,6.68-2.59.83-.51,1.57-.71,2.24-.71,1.39,0,2.53.85,3.74,1.69,0,0,2.83,2.34,5.31,3.22.51.18,1.14.26,1.86.26.67,0,1.41-.08,2.17-.22-4.75-4.05-7.34-10.11-5.75-16.34-1.47-.44-2.82-.66-4.06-.66h0Z"/>
        </g>
      </g>
      <path class="cls-1" d="m102.81,47.55H5.96c-3.02,0-5.46,1.9-5.46,4.23v11.57c0,2.34,2.45,4.23,5.46,4.23h6.46v34.43c0,1.26.36,2.46,1,3.54,4.17,8,36.14,8.34,40.96,8.34s36.79-.34,40.96-8.34c.64-1.08,1-2.28,1-3.54v-34.43h6.46c3.02,0,5.46-1.9,5.46-4.23v-11.57c0-2.34-2.45-4.23-5.46-4.23ZM6.66,63.93c-1.01,0-1.82-.63-1.82-1.41v-9.92c0-.78.82-1.41,1.82-1.41h5.76v12.74h-5.76Zm97.26-1.41c0,.78-.82,1.41-1.82,1.41h-5.76v-12.74h5.76c1.01,0,1.82.63,1.82,1.41v9.92Z"/>
    </g>
  </g>
</svg>